<?xml version="1.0" standalone="no"?>
<!DOCTYPE svg PUBLIC "-//W3C//DTD SVG 20010904//EN"
 "http://www.w3.org/TR/2001/REC-SVG-20010904/DTD/svg10.dtd">
<svg version="1.0" xmlns="http://www.w3.org/2000/svg"
 width="9934.000000pt" height="2688.000000pt" viewBox="0 0 9934.000000 2688.000000"
 preserveAspectRatio="xMidYMid meet">

<g transform="translate(0.000000,2688.000000) scale(0.100000,-0.100000)"
fill="#000000" stroke="none">
<path d="M30180 19249 c-685 -88 -1249 -552 -1471 -1207 l-28 -83 47 34 c26
19 439 308 917 642 479 334 874 611 880 616 11 11 -254 10 -345 -2z"/>
<path d="M35975 15278 c-372 -37 -738 -178 -1055 -405 -118 -85 -364 -328
-453 -448 -285 -387 -436 -851 -425 -1305 l3 -125 1509 1054 1509 1055 -44 19
c-303 131 -701 190 -1044 155z"/>
<path d="M4827 14865 c-1599 -1209 -2772 -2363 -3497 -3440 -539 -801 -810
-1534 -810 -2184 0 -404 106 -766 308 -1051 83 -118 296 -333 422 -427 439
-326 1071 -579 1849 -738 166 -34 175 -35 200 -19 114 75 3101 2167 3097 2171
-2 3 -132 -1 -288 -7 -564 -24 -1297 -5 -1704 45 -964 118 -1600 426 -1899
918 -275 453 -257 1071 52 1857 147 373 347 707 646 1080 285 355 554 644
1331 1428 307 309 557 562 555 562 -2 0 -120 -88 -262 -195z"/>
<path d="M22825 13916 c-936 -458 -2103 -1022 -2402 -1162 -867 -404 -1846
-797 -2968 -1191 -271 -95 -1163 -393 -1177 -393 -15 0 -5451 -3804 -5441
-3807 22 -8 838 176 1388 313 891 222 1665 442 2629 746 l320 101 1618 1130
c890 622 1616 1132 1615 1134 -2 1 -102 -32 -223 -76 -300 -107 -834 -284
-840 -278 -3 2 93 44 213 92 273 109 746 306 1007 420 l200 86 2120 1481
c1167 815 2125 1485 2131 1490 16 15 3 9 -190 -86z"/>
<path d="M30615 10639 c-713 -389 -1835 -961 -3200 -1631 -1082 -532 -2736
-1334 -3205 -1555 -872 -411 -1939 -852 -3010 -1245 -135 -49 -256 -97 -270
-105 -112 -71 -7021 -4908 -7013 -4910 11 -4 671 161 1048 262 867 232 1826
514 2665 785 735 238 1960 660 2024 698 41 25 4398 3070 4411 3084 6 5 -8 2
-30 -7 -1149 -482 -2004 -812 -2890 -1116 -339 -116 -726 -240 -737 -237 -5 2
145 65 334 140 1188 472 2543 1074 4116 1827 l253 121 2857 1996 c1571 1098
2861 2001 2867 2005 17 17 -1 7 -220 -112z"/>
<path d="M1672 6700 c-963 -1156 -1496 -2180 -1638 -3145 -26 -173 -26 -614
-1 -775 77 -492 256 -852 591 -1186 626 -622 1771 -1059 3331 -1268 l180 -24
60 42 c435 302 4034 2820 4032 2821 -1 1 -91 -6 -201 -16 -745 -68 -1259 -92
-1951 -93 -608 -1 -789 6 -1175 45 -1411 142 -2261 576 -2581 1320 -223 516
-174 1213 143 2022 28 71 47 131 44 134 -3 3 -68 30 -143 58 -161 61 -320 130
-450 196 l-93 46 -148 -177z"/>
<path d="M33250 795 l0 -685 575 0 575 0 0 685 0 685 -575 0 -575 0 0 -685z"/>
<path d="M41060 795 l0 -685 1705 0 1705 0 0 450 0 450 -1135 0 -1135 0 0 235
0 235 -570 0 -570 0 0 -685z"/>
<path d="M49920 795 l0 -685 1690 0 1690 0 0 450 0 450 -1120 0 -1120 0 0 235
0 235 -570 0 -570 0 0 -685z"/>
<path d="M58310 795 l0 -685 1705 0 1705 0 0 450 0 450 -1130 0 -1130 0 0 235
0 235 -575 0 -575 0 0 -685z"/>
<path d="M67221 1403 c418 -767 1151 -1217 2204 -1353 472 -61 923 -47 1455
46 147 26 461 92 468 98 4 5 -45 936 -50 941 -2 3 -44 -11 -94 -31 -340 -134
-970 -220 -1364 -185 -465 41 -837 199 -1152 490 l-76 71 -717 0 -716 0 42
-77z"/>
<path d="M76510 1473 c0 -3 27 -58 60 -121 115 -218 236 -387 400 -556 284
-293 589 -487 979 -620 635 -217 1499 -218 2116 -2 618 215 1101 627 1395
1189 l62 117 -654 0 -653 0 -45 -56 c-102 -129 -300 -289 -449 -364 -321 -160
-804 -195 -1191 -83 -108 31 -284 116 -377 181 -85 61 -237 204 -289 272 l-38
50 -658 0 c-362 0 -658 -3 -658 -7z"/>
<path d="M87170 795 l0 -685 550 0 550 0 0 685 0 685 -550 0 -550 0 0 -685z"/>
<path d="M89403 1468 c2 -7 102 -316 223 -686 l218 -672 550 2 550 3 158 485
c87 267 187 574 222 683 l64 197 -995 0 c-792 0 -994 -3 -990 -12z"/>
<path d="M92520 795 l0 -685 550 0 550 0 0 685 0 685 -550 0 -550 0 0 -685z"/>
</g>
</svg>
